<?xml version="1.0" encoding="utf-8"?>
<!-- Generator: Adobe Illustrator 17.1.0, SVG Export Plug-In . SVG Version: 6.00 Build 0)  -->
<!DOCTYPE svg PUBLIC "-//W3C//DTD SVG 1.1//EN" "http://www.w3.org/Graphics/SVG/1.1/DTD/svg11.dtd">
<svg version="1.1" id="Layer_1" xmlns="http://www.w3.org/2000/svg" xmlns:xlink="http://www.w3.org/1999/xlink" x="0px" y="0px"
	 viewBox="0 0 32.4 32.4" enable-background="new 0 0 32.4 32.4" xml:space="preserve">
<path fill="#F5F5F5" d="M32.4,16.2c0,9-7.3,16.2-16.2,16.2S0,25.2,0,16.2S7.3,0,16.2,0S32.4,7.3,32.4,16.2z M17.5,16.2l6-6
	c0.4-0.4,0.4-1,0-1.3c-0.4-0.4-1-0.4-1.3,0l-6,6l-6-6c-0.4-0.4-1-0.4-1.3,0c-0.4,0.4-0.4,1,0,1.3l6,6l-6,6c-0.4,0.4-0.4,1,0,1.3
	c0.2,0.2,0.4,0.3,0.7,0.3s0.5-0.1,0.7-0.3l6-6l6,6c0.2,0.2,0.4,0.3,0.7,0.3s0.5-0.1,0.7-0.3c0.4-0.4,0.4-1,0-1.3L17.5,16.2z"/>
</svg>
