<?xml version="1.0" encoding="utf-8"?>
<!-- Generator: Adobe Illustrator 17.1.0, SVG Export Plug-In . SVG Version: 6.00 Build 0)  -->
<!DOCTYPE svg PUBLIC "-//W3C//DTD SVG 1.1//EN" "http://www.w3.org/Graphics/SVG/1.1/DTD/svg11.dtd">
<svg version="1.1" id="Layer_1" xmlns="http://www.w3.org/2000/svg" xmlns:xlink="http://www.w3.org/1999/xlink" x="0px" y="0px"
	 viewBox="0 0 170 191.8" enable-background="new 0 0 170 191.8" xml:space="preserve">
<g>
	<polygon fill="#84C084" points="19.3,111.5 73.4,142.8 73.4,133.8 19.3,102.5 	"/>
	<polygon fill="#84C084" points="19.3,66.9 73.4,98.2 73.4,89.2 19.3,57.9 	"/>
	<path fill="#84C084" d="M162.7,42.6L92.3,1.9c-4.4-2.6-10.1-2.6-14.6,0L7.3,42.6C2.8,45.2,0,50,0,55.2v81.3c0,5.2,2.8,10,7.3,12.6
		l70.4,40.7c2.2,1.3,4.7,2,7.3,2c2.6,0,5.1-0.7,7.3-2l70.4-40.7c4.5-2.6,7.3-7.4,7.3-12.6V55.2C170,50,167.2,45.2,162.7,42.6z
		 M162.2,136.4c0,2.5-1.3,4.8-3.5,6L88.5,183c-2.1,1.2-4.8,1.2-7,0l-70.3-40.6c-2.1-1.2-3.5-3.5-3.5-6V55.3c0-2.5,1.3-4.8,3.5-6
		L81.5,8.7c1.1-0.6,2.3-0.9,3.5-0.9c1.2,0,2.4,0.3,3.5,0.9l70.3,40.6c2.1,1.2,3.5,3.5,3.5,6V136.4z"/>
	<polygon fill="#84C084" points="19.3,133.8 73.4,165.1 73.4,156.1 19.3,124.9 	"/>
	<polygon fill="#84C084" points="19.3,89.1 73.4,120.4 73.4,111.4 19.3,80.2 	"/>
	<polygon fill="#84C084" points="127.9,129.1 142.9,138.3 150.7,133.7 135.6,124.6 	"/>
	<path fill="#84C084" d="M92.8,104.3c0-2.4,1.3-4.6,3.3-5.8l43.1-25c1.1-0.6,2.1-0.2,2.4,0c0.4,0.2,1.3,0.9,1.3,2.2v11.5l7.8-4.5v-7
		c0-3.7-1.9-7-5.1-8.9c-3.2-1.8-7-1.8-10.2,0l-43.1,25c-4.5,2.6-7.2,7.4-7.2,12.5v16.1l7.8-4.5V104.3z"/>
	<polygon fill="#84C084" points="150.7,104.7 150.7,95.9 85,133.8 85,171.8 92.8,167.3 92.7,138.1 	"/>
</g>
</svg>
